name rise32.9588peak41.5061fall63.4684.mot
datacolumns 19
datarows 18
range 19.75992500000000 19.78825900000000
endheader
time	ground_force1_vx	ground_force1_vy	ground_force1_vz	ground_force1_px	ground_force1_py	ground_force1_pz	ground_force2_vx	ground_force2_vy	ground_force2_vz	ground_force2_px	ground_force2_py	ground_force2_pz	ground_torque1_x	ground_torque1_y	ground_torque1_z	ground_torque2_x	ground_torque2_y	ground_torque2_z	
19.75992500000000	-0.77365600000000	715.62813800000004	44.52606600000000	0.15904300000000	0.00000000000000	0.12601000000000	0.00000000000000	0.00000000000000	0.00000000000000	0.00000000000000	0.00000000000000	0.00000000000000	0.00000000000000	13.80002600000000	0.00000000000000	0.00000000000000	0.00000000000000	0.00000000000000	
19.76159300000000	-1.12006000000000	716.43641000000002	44.54405600000000	0.15808000000000	0.00000000000000	0.12599400000000	0.00000000000000	0.00000000000000	0.00000000000000	0.00000000000000	0.00000000000000	0.00000000000000	0.00000000000000	13.81999800000000	0.00000000000000	0.00000000000000	0.00000000000000	0.00000000000000	
19.76328000000000	-1.47496100000000	717.27624200000002	44.56662500000000	0.15709800000000	0.00000000000000	0.12598000000000	0.00000000000000	0.00000000000000	0.00000000000000	0.00000000000000	0.00000000000000	0.00000000000000	0.00000000000000	13.84264100000000	0.00000000000000	0.00000000000000	0.00000000000000	0.00000000000000	
19.76492900000000	-1.83855500000000	718.14732200000003	44.59380900000000	0.15609900000000	0.00000000000000	0.12596600000000	0.00000000000000	0.00000000000000	0.00000000000000	0.00000000000000	0.00000000000000	0.00000000000000	0.00000000000000	13.86800200000000	0.00000000000000	0.00000000000000	0.00000000000000	0.00000000000000	
19.76659200000000	-2.21100400000000	719.04935799999998	44.62564100000000	0.15508300000000	0.00000000000000	0.12595200000000	0.00000000000000	0.00000000000000	0.00000000000000	0.00000000000000	0.00000000000000	0.00000000000000	0.00000000000000	13.89612700000000	0.00000000000000	0.00000000000000	0.00000000000000	0.00000000000000	
19.76825600000000	-2.59243700000000	719.98206800000003	44.66215300000000	0.15405100000000	0.00000000000000	0.12593800000000	0.00000000000000	0.00000000000000	0.00000000000000	0.00000000000000	0.00000000000000	0.00000000000000	0.00000000000000	13.92706000000000	0.00000000000000	0.00000000000000	0.00000000000000	0.00000000000000	
19.76992900000000	-2.98295500000000	720.94518700000003	44.70337400000000	0.15300600000000	0.00000000000000	0.12592500000000	0.00000000000000	0.00000000000000	0.00000000000000	0.00000000000000	0.00000000000000	0.00000000000000	0.00000000000000	13.96084000000000	0.00000000000000	0.00000000000000	0.00000000000000	0.00000000000000	
19.77159200000000	-3.38262300000000	721.93846499999995	44.74932900000000	0.15194700000000	0.00000000000000	0.12591200000000	0.00000000000000	0.00000000000000	0.00000000000000	0.00000000000000	0.00000000000000	0.00000000000000	0.00000000000000	13.99750400000000	0.00000000000000	0.00000000000000	0.00000000000000	0.00000000000000	
19.77325400000000	-3.79148000000000	722.96166500000004	44.80003900000000	0.15087600000000	0.00000000000000	0.12589900000000	0.00000000000000	0.00000000000000	0.00000000000000	0.00000000000000	0.00000000000000	0.00000000000000	0.00000000000000	14.03708500000000	0.00000000000000	0.00000000000000	0.00000000000000	0.00000000000000	
19.77492100000000	-4.20953200000000	724.01456299999995	44.85552200000000	0.14979500000000	0.00000000000000	0.12588500000000	0.00000000000000	0.00000000000000	0.00000000000000	0.00000000000000	0.00000000000000	0.00000000000000	0.00000000000000	14.07961100000000	0.00000000000000	0.00000000000000	0.00000000000000	0.00000000000000	
19.77659200000000	-4.63675800000000	725.09694900000000	44.91578800000000	0.14870600000000	0.00000000000000	0.12587200000000	0.00000000000000	0.00000000000000	0.00000000000000	0.00000000000000	0.00000000000000	0.00000000000000	0.00000000000000	14.12510500000000	0.00000000000000	0.00000000000000	0.00000000000000	0.00000000000000	
19.77826300000000	-5.07310900000000	726.20862199999999	44.98084300000000	0.14760900000000	0.00000000000000	0.12585900000000	0.00000000000000	0.00000000000000	0.00000000000000	0.00000000000000	0.00000000000000	0.00000000000000	0.00000000000000	14.17358500000000	0.00000000000000	0.00000000000000	0.00000000000000	0.00000000000000	
19.77992600000000	-5.51850700000000	727.34938999999997	45.05068600000000	0.14650700000000	0.00000000000000	0.12584600000000	0.00000000000000	0.00000000000000	0.00000000000000	0.00000000000000	0.00000000000000	0.00000000000000	0.00000000000000	14.22506300000000	0.00000000000000	0.00000000000000	0.00000000000000	0.00000000000000	
19.78159400000000	-5.97285000000000	728.51906799999995	45.12530900000000	0.14540100000000	0.00000000000000	0.12583200000000	0.00000000000000	0.00000000000000	0.00000000000000	0.00000000000000	0.00000000000000	0.00000000000000	0.00000000000000	14.27954600000000	0.00000000000000	0.00000000000000	0.00000000000000	0.00000000000000	
19.78325500000000	-6.43601200000000	729.71747900000003	45.20469700000000	0.14429200000000	0.00000000000000	0.12581700000000	0.00000000000000	0.00000000000000	0.00000000000000	0.00000000000000	0.00000000000000	0.00000000000000	0.00000000000000	14.33703100000000	0.00000000000000	0.00000000000000	0.00000000000000	0.00000000000000	
19.78494700000000	-6.90784300000000	730.94444599999997	45.28882700000000	0.14318300000000	0.00000000000000	0.12580200000000	0.00000000000000	0.00000000000000	0.00000000000000	0.00000000000000	0.00000000000000	0.00000000000000	0.00000000000000	14.39751200000000	0.00000000000000	0.00000000000000	0.00000000000000	0.00000000000000	
19.78659000000000	-7.38816900000000	732.19979400000000	45.37766600000000	0.14207400000000	0.00000000000000	0.12578700000000	0.00000000000000	0.00000000000000	0.00000000000000	0.00000000000000	0.00000000000000	0.00000000000000	0.00000000000000	14.46097400000000	0.00000000000000	0.00000000000000	0.00000000000000	0.00000000000000	
19.78825900000000	-7.87679700000000	733.48334499999999	45.47117600000000	0.14096900000000	0.00000000000000	0.12577100000000	0.00000000000000	0.00000000000000	0.00000000000000	0.00000000000000	0.00000000000000	0.00000000000000	0.00000000000000	14.52739400000000	0.00000000000000	0.00000000000000	0.00000000000000	0.00000000000000	
